<svg xmlns="http://www.w3.org/2000/svg"  viewBox="0 0 32 32" width="32px" height="32px"><path d="m26.96,7.25c-.25-1.09-1.12-1.95-2.21-2.21-5.8-1.38-11.69-1.38-17.5,0-1.09.26-1.95,1.12-2.21,2.21-1.38,5.81-1.38,11.69,0,17.5.26,1.09,1.12,1.96,2.21,2.21,2.9.69,5.83,1.04,8.75,1.04s5.85-.35,8.75-1.04c1.09-.26,1.95-1.12,2.21-2.21,1.38-5.81,1.38-11.69,0-17.5Zm-5.99,7.25h0c-1.1-.02-2.12-.39-2.93-1.02v6.02c0,2.21-1.8,4-4,4s-4-1.79-4-4,1.79-4,4-4c.55,0,1,.45,1,1s-.45,1-1,1c-1.1,0-2,.9-2,2s.9,2,2,2,2-.9,2-2v-10c0-.55.45-1,1-1s1,.45,1,1c0,1.63,1.32,2.98,2.96,3,.55.01.99.46.98,1.01,0,.55-.45.99-1,.99Z"/></svg>