<?xml version="1.0" encoding="UTF-8"?>
<svg xmlns="http://www.w3.org/2000/svg" xmlns:xlink="http://www.w3.org/1999/xlink" width="30px" height="30px" viewBox="0 0 30 30" version="1.1">
<g id="surface1">
<path style=" stroke:none;fill-rule:nonzero;fill:rgb(0%,0%,0%);fill-opacity:1;" d="M 26.785156 20.757812 C 26.785156 21.058594 26.730469 21.453125 26.617188 21.9375 C 26.507812 22.425781 26.390625 22.808594 26.265625 23.085938 C 26.03125 23.644531 25.351562 24.234375 24.222656 24.859375 C 23.175781 25.429688 22.136719 25.714844 21.109375 25.714844 C 20.808594 25.714844 20.515625 25.695312 20.230469 25.65625 C 19.945312 25.617188 19.625 25.546875 19.269531 25.445312 C 18.910156 25.347656 18.648438 25.265625 18.472656 25.203125 C 18.300781 25.140625 17.992188 25.027344 17.542969 24.859375 C 17.097656 24.691406 16.824219 24.59375 16.722656 24.558594 C 15.628906 24.167969 14.652344 23.707031 13.792969 23.167969 C 12.367188 22.289062 10.890625 21.085938 9.367188 19.5625 C 7.84375 18.039062 6.640625 16.5625 5.757812 15.132812 C 5.222656 14.273438 4.761719 13.296875 4.371094 12.203125 C 4.335938 12.105469 4.234375 11.832031 4.066406 11.382812 C 3.902344 10.9375 3.785156 10.628906 3.726562 10.453125 C 3.664062 10.28125 3.582031 10.015625 3.480469 9.660156 C 3.382812 9.300781 3.3125 8.980469 3.273438 8.695312 C 3.234375 8.414062 3.214844 8.121094 3.214844 7.816406 C 3.214844 6.792969 3.5 5.753906 4.066406 4.703125 C 4.691406 3.578125 5.285156 2.894531 5.84375 2.660156 C 6.121094 2.539062 6.503906 2.421875 6.988281 2.308594 C 7.476562 2.199219 7.867188 2.144531 8.167969 2.144531 C 8.324219 2.144531 8.441406 2.160156 8.519531 2.191406 C 8.722656 2.261719 9.019531 2.683594 9.410156 3.464844 C 9.53125 3.675781 9.699219 3.980469 9.910156 4.371094 C 10.121094 4.761719 10.316406 5.113281 10.496094 5.433594 C 10.675781 5.75 10.847656 6.050781 11.015625 6.328125 C 11.050781 6.371094 11.148438 6.511719 11.308594 6.746094 C 11.46875 6.980469 11.589844 7.179688 11.667969 7.339844 C 11.746094 7.503906 11.785156 7.660156 11.785156 7.816406 C 11.785156 8.042969 11.625 8.320312 11.308594 8.65625 C 10.992188 8.988281 10.644531 9.296875 10.269531 9.574219 C 9.898438 9.855469 9.550781 10.152344 9.234375 10.464844 C 8.914062 10.777344 8.753906 11.03125 8.753906 11.234375 C 8.753906 11.332031 8.785156 11.460938 8.839844 11.609375 C 8.894531 11.761719 8.941406 11.875 8.980469 11.953125 C 9.019531 12.03125 9.097656 12.164062 9.214844 12.355469 C 9.332031 12.542969 9.398438 12.652344 9.410156 12.671875 C 10.257812 14.203125 11.226562 15.511719 12.320312 16.605469 C 13.414062 17.699219 14.726562 18.671875 16.253906 19.519531 C 16.277344 19.53125 16.382812 19.59375 16.574219 19.710938 C 16.761719 19.828125 16.898438 19.90625 16.976562 19.945312 C 17.054688 19.984375 17.167969 20.035156 17.320312 20.089844 C 17.46875 20.144531 17.59375 20.171875 17.695312 20.171875 C 17.894531 20.171875 18.152344 20.015625 18.464844 19.695312 C 18.777344 19.378906 19.074219 19.03125 19.351562 18.65625 C 19.632812 18.285156 19.9375 17.9375 20.273438 17.621094 C 20.609375 17.300781 20.886719 17.144531 21.109375 17.144531 C 21.265625 17.144531 21.425781 17.183594 21.585938 17.261719 C 21.75 17.339844 21.949219 17.457031 22.183594 17.621094 C 22.417969 17.78125 22.554688 17.878906 22.601562 17.914062 C 22.878906 18.082031 23.179688 18.253906 23.496094 18.433594 C 23.8125 18.609375 24.167969 18.804688 24.558594 19.019531 C 24.949219 19.230469 25.25 19.398438 25.464844 19.519531 C 26.246094 19.910156 26.667969 20.207031 26.734375 20.40625 C 26.769531 20.484375 26.785156 20.601562 26.785156 20.757812 Z M 26.785156 20.757812 "/>
</g>
</svg>
