<svg xmlns="http://www.w3.org/2000/svg" xmlns:xlink="http://www.w3.org/1999/xlink" width="50px" height="50px" viewBox="0 0 50 50" version="1.1">
<g id="surface1">
<path style=" stroke:none;fill-rule:nonzero;fill:#ffba00;fill-opacity:1;" d="M 44.640625 34.597656 C 44.640625 35.097656 44.550781 35.753906 44.363281 36.5625 C 44.179688 37.375 43.984375 38.015625 43.777344 38.476562 C 43.386719 39.40625 42.253906 40.390625 40.371094 41.433594 C 38.625 42.382812 36.894531 42.859375 35.183594 42.859375 C 34.679688 42.859375 34.191406 42.824219 33.71875 42.761719 C 33.242188 42.695312 32.707031 42.578125 32.117188 42.410156 C 31.515625 42.246094 31.082031 42.109375 30.789062 42.003906 C 30.5 41.902344 29.988281 41.710938 29.238281 41.433594 C 28.496094 41.152344 28.039062 40.988281 27.871094 40.929688 C 26.046875 40.28125 24.421875 39.511719 22.988281 38.613281 C 20.613281 37.148438 18.152344 35.144531 15.613281 32.605469 C 13.074219 30.066406 11.066406 27.605469 9.597656 25.222656 C 8.703125 23.789062 7.9375 22.160156 7.285156 20.339844 C 7.226562 20.175781 7.058594 19.71875 6.777344 18.972656 C 6.503906 18.230469 6.308594 17.714844 6.210938 17.421875 C 6.105469 17.136719 5.96875 16.691406 5.800781 16.101562 C 5.636719 15.5 5.519531 14.96875 5.457031 14.492188 C 5.390625 14.023438 5.359375 13.535156 5.359375 13.027344 C 5.359375 11.320312 5.832031 9.589844 6.777344 7.839844 C 7.820312 5.964844 8.808594 4.824219 9.738281 4.433594 C 10.203125 4.230469 10.839844 4.035156 11.648438 3.847656 C 12.460938 3.664062 13.113281 3.574219 13.613281 3.574219 C 13.875 3.574219 14.070312 3.601562 14.199219 3.652344 C 14.539062 3.769531 15.03125 4.472656 15.683594 5.773438 C 15.886719 6.125 16.164062 6.632812 16.515625 7.285156 C 16.867188 7.9375 17.195312 8.523438 17.492188 9.054688 C 17.792969 9.582031 18.078125 10.085938 18.359375 10.546875 C 18.417969 10.617188 18.582031 10.851562 18.847656 11.242188 C 19.113281 11.632812 19.316406 11.964844 19.445312 12.234375 C 19.578125 12.507812 19.640625 12.765625 19.640625 13.027344 C 19.640625 13.40625 19.375 13.867188 18.847656 14.425781 C 18.320312 14.980469 17.742188 15.496094 17.117188 15.957031 C 16.496094 16.425781 15.917969 16.921875 15.390625 17.441406 C 14.855469 17.960938 14.589844 18.386719 14.589844 18.722656 C 14.589844 18.886719 14.640625 19.101562 14.734375 19.347656 C 14.824219 19.601562 14.902344 19.792969 14.96875 19.921875 C 15.03125 20.050781 15.164062 20.273438 15.359375 20.59375 C 15.554688 20.90625 15.664062 21.085938 15.683594 21.121094 C 17.097656 23.671875 18.710938 25.851562 20.535156 27.675781 C 22.355469 29.5 24.542969 31.121094 27.089844 32.53125 C 27.128906 32.550781 27.304688 32.65625 27.625 32.851562 C 27.9375 33.046875 28.164062 33.175781 28.292969 33.242188 C 28.425781 33.308594 28.613281 33.390625 28.867188 33.484375 C 29.113281 33.574219 29.324219 33.621094 29.492188 33.621094 C 29.824219 33.621094 30.253906 33.359375 30.773438 32.824219 C 31.296875 32.296875 31.789062 31.71875 32.253906 31.09375 C 32.722656 30.476562 33.230469 29.894531 33.789062 29.367188 C 34.347656 28.835938 34.8125 28.574219 35.183594 28.574219 C 35.441406 28.574219 35.710938 28.640625 35.976562 28.769531 C 36.25 28.898438 36.582031 29.09375 36.972656 29.367188 C 37.363281 29.636719 37.589844 29.796875 37.667969 29.855469 C 38.132812 30.136719 38.632812 30.421875 39.160156 30.722656 C 39.6875 31.015625 40.28125 31.339844 40.929688 31.699219 C 41.582031 32.050781 42.082031 32.332031 42.441406 32.53125 C 43.742188 33.183594 44.445312 33.679688 44.558594 34.011719 C 44.617188 34.140625 44.640625 34.335938 44.640625 34.597656 Z M 44.640625 34.597656 "/>
</g>
</svg>