<?xml version="1.0" encoding="UTF-8"?>
<svg xmlns="http://www.w3.org/2000/svg" xmlns:xlink="http://www.w3.org/1999/xlink" width="30px" height="30px" viewBox="0 0 30 30" version="1.1">
<g id="surface1">
<path style=" stroke:none;fill-rule:nonzero;fill:rgb(0%,0%,0%);fill-opacity:1;" d="M 20.1875 17.460938 C 21.0625 16.078125 21.578125 14.4375 21.578125 12.671875 C 21.578125 7.746094 17.589844 3.75 12.667969 3.75 C 7.742188 3.75 3.75 7.746094 3.75 12.671875 C 3.75 17.601562 7.742188 21.597656 12.664062 21.597656 C 14.449219 21.597656 16.113281 21.070312 17.507812 20.167969 L 17.914062 19.886719 L 24.273438 26.25 L 26.25 24.242188 L 19.890625 17.875 Z M 17.660156 7.6875 C 18.988281 9.015625 19.722656 10.789062 19.722656 12.667969 C 19.722656 14.546875 18.988281 16.320312 17.660156 17.648438 C 16.328125 18.976562 14.558594 19.710938 12.679688 19.710938 C 10.796875 19.710938 9.027344 18.976562 7.699219 17.648438 C 6.367188 16.320312 5.636719 14.546875 5.636719 12.667969 C 5.636719 10.789062 6.367188 9.015625 7.699219 7.6875 C 9.027344 6.355469 10.796875 5.625 12.679688 5.625 C 14.5625 5.625 16.328125 6.359375 17.660156 7.6875 Z M 17.660156 7.6875 "/>
</g>
</svg>
