<?xml version="1.0" encoding="UTF-8"?>
<svg xmlns="http://www.w3.org/2000/svg" xmlns:xlink="http://www.w3.org/1999/xlink" width="50px" height="50px" viewBox="0 0 50 50" version="1.1">
<g id="surface1">
<path style=" stroke:none;fill-rule:evenodd;fill:rgb(0%,0%,0%);fill-opacity:1;" d="M 14.582031 2.082031 L 35.417969 2.082031 C 37.71875 2.082031 39.582031 3.949219 39.582031 6.25 L 39.582031 43.75 C 39.582031 46.050781 37.71875 47.917969 35.417969 47.917969 L 14.582031 47.917969 C 12.28125 47.917969 10.417969 46.050781 10.417969 43.75 L 10.417969 6.25 C 10.417969 3.949219 12.28125 2.082031 14.582031 2.082031 Z M 20.832031 6.25 L 14.582031 6.25 L 14.582031 43.75 L 35.417969 43.75 L 35.417969 6.25 L 29.167969 6.25 C 29.167969 7.402344 28.234375 8.332031 27.082031 8.332031 L 22.917969 8.332031 C 21.765625 8.332031 20.832031 7.402344 20.832031 6.25 Z M 20.832031 6.25 "/>
</g>
</svg>
