<?xml version="1.0" encoding="UTF-8"?>
<svg xmlns="http://www.w3.org/2000/svg" xmlns:xlink="http://www.w3.org/1999/xlink" width="30px" height="30px" viewBox="0 0 30 30" version="1.1">
<g id="surface1">
<path style=" stroke:none;fill-rule:nonzero;fill:rgb(0%,0%,0%);fill-opacity:1;" d="M 15 20.625 C 14.03125 20.625 13.0625 20.308594 12.238281 19.664062 L 0 10.148438 L 0 23.4375 C 0 24.992188 1.257812 26.25 2.8125 26.25 L 27.1875 26.25 C 28.742188 26.25 30 24.992188 30 23.4375 L 30 10.148438 L 17.765625 19.671875 C 16.9375 20.308594 15.96875 20.625 15 20.625 Z M 0.953125 8.515625 L 13.386719 18.1875 C 14.335938 18.925781 15.664062 18.925781 16.613281 18.1875 L 29.046875 8.511719 C 29.59375 8.046875 30 7.324219 30 6.5625 C 30 5.007812 28.742188 3.75 27.1875 3.75 L 2.8125 3.75 C 1.257812 3.75 0 5.007812 0 6.5625 C 0 7.324219 0.351562 8.046875 0.953125 8.515625 Z M 0.953125 8.515625 "/>
</g>
</svg>
