<?xml version="1.0" encoding="UTF-8"?>
<svg xmlns="http://www.w3.org/2000/svg" xmlns:xlink="http://www.w3.org/1999/xlink" width="30px" height="30px" viewBox="0 0 30 30" version="1.1">
<g id="surface1">
<path style=" stroke:none;fill-rule:evenodd;fill:rgb(0%,0%,0%);fill-opacity:1;" d="M 4.6875 26.25 L 25.3125 26.25 C 25.5625 26.25 25.800781 26.152344 25.976562 25.976562 C 26.152344 25.800781 26.25 25.5625 26.25 25.3125 C 26.25 19.617188 21.632812 15 15.9375 15 C 15.316406 15 14.691406 15 14.074219 15 C 8.378906 15 3.75 19.617188 3.75 25.3125 C 3.75 25.3125 3.796875 25.734375 4.035156 25.972656 C 4.273438 26.214844 4.6875 26.25 4.6875 26.25 Z M 4.6875 26.25 "/>
<path style=" stroke:none;fill-rule:evenodd;fill:rgb(0%,0%,0%);fill-opacity:1;" d="M 19.6875 8.433594 C 19.6875 11.023438 17.585938 13.125 14.996094 13.125 C 12.402344 13.125 10.300781 11.023438 10.300781 8.433594 C 10.300781 5.839844 12.402344 3.738281 14.996094 3.738281 C 17.585938 3.738281 19.6875 5.839844 19.6875 8.433594 Z M 19.6875 8.433594 "/>
</g>
</svg>
