<?xml version="1.0" encoding="UTF-8"?>
<svg xmlns="http://www.w3.org/2000/svg" xmlns:xlink="http://www.w3.org/1999/xlink" width="50px" height="50px" viewBox="0 0 50 50" version="1.1">
<g id="surface1">
<path style=" stroke:none;fill-rule:nonzero;fill:rgb(0%,0%,0%);fill-opacity:1;" d="M 47.222656 40.277344 L 42.472656 40.277344 C 41.753906 39.035156 40.421875 38.191406 38.890625 38.191406 L 27.777344 38.191406 C 25.480469 38.191406 23.609375 40.0625 23.609375 42.359375 L 23.609375 42.707031 L 10.9375 42.707031 C 6.4375 42.707031 2.777344 39.046875 2.777344 34.550781 C 2.777344 30.050781 6.4375 26.390625 10.9375 26.390625 L 39.0625 26.390625 C 45.09375 26.390625 50 21.480469 50 15.453125 C 50 9.425781 45.09375 4.515625 39.0625 4.515625 L 26.390625 4.515625 L 26.390625 4.167969 C 26.390625 1.871094 24.519531 0 22.222656 0 L 11.109375 0 C 9.574219 0 8.246094 0.84375 7.527344 2.082031 L 2.777344 2.082031 C 1.246094 2.082031 0 3.328125 0 4.859375 L 0 6.941406 C 0 8.472656 1.246094 9.722656 2.777344 9.722656 L 7.527344 9.722656 C 8.246094 10.964844 9.574219 11.808594 11.109375 11.808594 L 22.222656 11.808594 C 24.519531 11.808594 26.390625 9.9375 26.390625 7.640625 L 26.390625 7.292969 L 39.0625 7.292969 C 43.5625 7.292969 47.222656 10.953125 47.222656 15.453125 C 47.222656 19.953125 43.5625 23.609375 39.0625 23.609375 L 10.9375 23.609375 C 4.90625 23.609375 0 28.519531 0 34.550781 C 0 40.578125 4.90625 45.488281 10.9375 45.488281 L 23.609375 45.488281 L 23.609375 45.832031 C 23.609375 48.128906 25.480469 50 27.777344 50 L 38.890625 50 C 40.425781 50 41.753906 49.15625 42.472656 47.917969 L 47.222656 47.917969 C 48.753906 47.917969 50 46.671875 50 45.140625 L 50 43.058594 C 50 41.527344 48.753906 40.277344 47.222656 40.277344 Z M 2.777344 4.859375 L 6.941406 4.859375 L 6.941406 6.941406 L 2.777344 6.941406 Z M 23.609375 7.640625 C 23.609375 8.40625 22.988281 9.027344 22.222656 9.027344 L 11.109375 9.027344 C 10.34375 9.027344 9.722656 8.40625 9.722656 7.640625 L 9.722656 4.167969 C 9.722656 3.402344 10.34375 2.777344 11.109375 2.777344 L 22.222656 2.777344 C 22.988281 2.777344 23.609375 3.402344 23.609375 4.167969 Z M 38.890625 47.222656 L 27.777344 47.222656 C 27.011719 47.222656 26.390625 46.597656 26.390625 45.832031 L 26.390625 42.359375 C 26.390625 41.59375 27.011719 40.972656 27.777344 40.972656 L 38.890625 40.972656 C 39.65625 40.972656 40.277344 41.59375 40.277344 42.359375 L 40.277344 45.832031 C 40.277344 46.597656 39.65625 47.222656 38.890625 47.222656 Z M 47.222656 45.140625 L 43.058594 45.140625 L 43.058594 43.058594 L 47.222656 43.058594 Z M 47.222656 45.140625 "/>
</g>
</svg>
