<?xml version="1.0" encoding="UTF-8"?>
<svg xmlns="http://www.w3.org/2000/svg" xmlns:xlink="http://www.w3.org/1999/xlink" width="50px" height="50px" viewBox="0 0 50 50" version="1.1">
<g id="surface1">
<path style=" stroke:none;fill-rule:nonzero;fill:#ffba00;fill-opacity:1;" d="M 25 0 L 45.65625 9.375 L 48.4375 9.375 C 49.300781 9.375 50 10.074219 50 10.9375 L 50 17.1875 C 50 18.050781 49.300781 18.75 48.4375 18.75 L 46.875 18.75 L 46.875 40.625 C 47.59375 40.625 48.21875 41.117188 48.390625 41.8125 L 49.953125 48.0625 C 50.070312 48.527344 49.964844 49.023438 49.671875 49.402344 C 49.375 49.78125 48.917969 50.003906 48.4375 50 L 1.5625 50 C 1.082031 50.003906 0.625 49.78125 0.328125 49.402344 C 0.0351562 49.023438 -0.0703125 48.527344 0.046875 48.0625 L 1.609375 41.8125 C 1.78125 41.117188 2.40625 40.625 3.125 40.625 L 3.125 18.75 L 1.5625 18.75 C 0.699219 18.75 0 18.050781 0 17.1875 L 0 10.9375 C 0 10.074219 0.699219 9.375 1.5625 9.375 L 4.34375 9.375 Z M 11.804688 9.375 L 38.199219 9.375 L 25 3.125 Z M 6.25 18.75 L 6.25 40.625 L 9.375 40.625 L 9.375 18.75 Z M 12.5 18.75 L 12.5 40.625 L 20.3125 40.625 L 20.3125 18.75 Z M 23.4375 18.75 L 23.4375 40.625 L 26.5625 40.625 L 26.5625 18.75 Z M 29.6875 18.75 L 29.6875 40.625 L 37.5 40.625 L 37.5 18.75 Z M 40.625 18.75 L 40.625 40.625 L 43.75 40.625 L 43.75 18.75 Z M 46.875 15.625 L 46.875 12.5 L 3.125 12.5 L 3.125 15.625 Z M 45.65625 43.75 L 4.34375 43.75 L 3.5625 46.875 L 46.4375 46.875 Z M 45.65625 43.75 "/>
</g>
</svg>
