<?xml version="1.0" encoding="UTF-8"?>
<svg xmlns="http://www.w3.org/2000/svg" xmlns:xlink="http://www.w3.org/1999/xlink" width="50px" height="50px" viewBox="0 0 50 50" version="1.1">
<g id="surface1">
<path style=" stroke:none;fill-rule:nonzero;fill:#ffba00;fill-opacity:1;" d="M 25 31.25 C 28.453125 31.25 31.25 28.453125 31.25 25 C 31.25 21.546875 28.453125 18.75 25 18.75 C 21.546875 18.75 18.75 21.546875 18.75 25 C 18.75 28.453125 21.546875 31.25 25 31.25 "/>
<path style=" stroke:none;fill-rule:nonzero;fill:#ffba00;fill-opacity:1;" d="M 0 12.5 C 0 10.773438 1.398438 9.375 3.125 9.375 L 46.875 9.375 C 48.601562 9.375 50 10.773438 50 12.5 L 50 37.5 C 50 39.226562 48.601562 40.625 46.875 40.625 L 3.125 40.625 C 1.398438 40.625 0 39.226562 0 37.5 Z M 9.375 12.5 C 9.375 15.953125 6.578125 18.75 3.125 18.75 L 3.125 31.25 C 6.578125 31.25 9.375 34.046875 9.375 37.5 L 40.625 37.5 C 40.625 34.046875 43.421875 31.25 46.875 31.25 L 46.875 18.75 C 43.421875 18.75 40.625 15.953125 40.625 12.5 Z M 9.375 12.5 "/>
</g>
</svg>
