<?xml version="1.0" encoding="UTF-8"?>
<svg xmlns="http://www.w3.org/2000/svg" xmlns:xlink="http://www.w3.org/1999/xlink" width="50px" height="50px" viewBox="0 0 50 50" version="1.1">
<g id="surface1">
<path style=" stroke:none;fill-rule:nonzero;fill:#ffba00;fill-opacity:1;" d="M 0 12.5 C 0 9.046875 2.796875 6.25 6.25 6.25 L 43.75 6.25 C 47.203125 6.25 50 9.046875 50 12.5 L 50 28.125 L 0 28.125 Z M 35.9375 15.625 C 35.074219 15.625 34.375 16.324219 34.375 17.1875 L 34.375 20.3125 C 34.375 21.175781 35.074219 21.875 35.9375 21.875 L 42.1875 21.875 C 43.050781 21.875 43.75 21.175781 43.75 20.3125 L 43.75 17.1875 C 43.75 16.324219 43.050781 15.625 42.1875 15.625 Z M 0 34.375 L 0 37.5 C 0 40.953125 2.796875 43.75 6.25 43.75 L 43.75 43.75 C 47.203125 43.75 50 40.953125 50 37.5 L 50 34.375 Z M 0 34.375 "/>
</g>
</svg>
