<?xml version="1.0" encoding="UTF-8"?>
<svg xmlns="http://www.w3.org/2000/svg" xmlns:xlink="http://www.w3.org/1999/xlink" width="50px" height="50px" viewBox="0 0 50 50" version="1.1">
<g id="surface1">
<path style=" stroke:none;fill-rule:evenodd;fill:#ffba00;fill-opacity:1;" d="M 18.484375 35.9375 C 17.839844 37.757812 16.101562 39.0625 14.0625 39.0625 C 12.023438 39.0625 10.285156 37.757812 9.640625 35.9375 L 4.6875 35.9375 C 4.273438 35.9375 3.875 35.773438 3.582031 35.480469 C 3.289062 35.1875 3.125 34.789062 3.125 34.375 C 3.125 30.113281 3.125 18.324219 3.125 14.0625 C 3.125 13.199219 3.824219 12.5 4.6875 12.5 C 10.519531 12.5 31.078125 12.5 38.710938 12.5 C 40.476562 12.5 42.089844 13.496094 42.878906 15.078125 C 44.199219 17.71875 46.136719 21.59375 46.710938 22.738281 C 46.820312 22.957031 46.875 23.195312 46.875 23.4375 C 46.875 25.03125 46.875 31.390625 46.875 34.375 C 46.875 34.789062 46.710938 35.1875 46.417969 35.480469 C 46.125 35.773438 45.726562 35.9375 45.3125 35.9375 L 40.359375 35.9375 C 39.714844 37.757812 37.976562 39.0625 35.9375 39.0625 C 33.898438 39.0625 32.160156 37.757812 31.515625 35.9375 Z M 14.0625 32.8125 C 14.925781 32.8125 15.625 33.511719 15.625 34.375 C 15.625 35.238281 14.925781 35.9375 14.0625 35.9375 C 13.199219 35.9375 12.5 35.238281 12.5 34.375 C 12.5 33.511719 13.199219 32.8125 14.0625 32.8125 Z M 35.9375 32.8125 C 36.800781 32.8125 37.5 33.511719 37.5 34.375 C 37.5 35.238281 36.800781 35.9375 35.9375 35.9375 C 35.074219 35.9375 34.375 35.238281 34.375 34.375 C 34.375 33.511719 35.074219 32.8125 35.9375 32.8125 Z M 18.484375 32.8125 L 31.515625 32.8125 C 32.160156 30.992188 33.898438 29.6875 35.9375 29.6875 C 37.976562 29.6875 39.714844 30.992188 40.359375 32.8125 L 43.75 32.8125 L 43.75 25 L 37.5 25 C 36.636719 25 35.9375 24.300781 35.9375 23.4375 C 35.9375 22.574219 36.636719 21.875 37.5 21.875 L 42.785156 21.875 C 42.785156 21.875 40.949219 18.203125 40.089844 16.488281 C 39.828125 15.960938 39.285156 15.625 38.695312 15.625 C 33.210938 15.625 6.25 15.625 6.25 15.625 L 6.25 32.8125 L 9.640625 32.8125 C 10.285156 30.992188 12.023438 29.6875 14.0625 29.6875 C 16.101562 29.6875 17.839844 30.992188 18.484375 32.8125 Z M 18.484375 32.8125 "/>
</g>
</svg>
