<svg xmlns="http://www.w3.org/2000/svg" xmlns:xlink="http://www.w3.org/1999/xlink" width="50px" height="50px" viewBox="0 0 50 50" version="1.1">
<g id="surface1">
<path style=" stroke:none;fill-rule:nonzero;fill:#ffba00;fill-opacity:1;" d="M 25 34.375 C 23.386719 34.375 21.769531 33.847656 20.398438 32.773438 L 0 16.914062 L 0 39.0625 C 0 41.652344 2.097656 43.75 4.6875 43.75 L 45.3125 43.75 C 47.902344 43.75 50 41.652344 50 39.0625 L 50 16.914062 L 29.609375 32.785156 C 28.230469 33.847656 26.613281 34.375 25 34.375 Z M 1.589844 14.191406 L 22.3125 30.3125 C 23.894531 31.542969 26.105469 31.542969 27.6875 30.3125 L 48.410156 14.1875 C 49.324219 13.410156 50 12.207031 50 10.9375 C 50 8.347656 47.902344 6.25 45.3125 6.25 L 4.6875 6.25 C 2.097656 6.25 0 8.347656 0 10.9375 C 0 12.207031 0.585938 13.410156 1.589844 14.191406 Z M 1.589844 14.191406 "/>
</g>
</svg>