<svg xmlns="http://www.w3.org/2000/svg" xmlns:xlink="http://www.w3.org/1999/xlink" width="50px" height="50px" viewBox="0 0 50 50" version="1.1">
<g id="surface1">
<path style=" stroke:none;fill-rule:evenodd;fill:#ffba00;fill-opacity:1;" d="M 7.8125 43.75 L 42.1875 43.75 C 42.605469 43.75 43 43.585938 43.292969 43.292969 C 43.585938 43 43.75 42.605469 43.75 42.1875 C 43.75 32.695312 36.054688 25 26.5625 25 C 25.527344 25 24.484375 25 23.457031 25 C 13.964844 25 6.25 32.695312 6.25 42.1875 C 6.25 42.1875 6.328125 42.890625 6.726562 43.289062 C 7.121094 43.691406 7.8125 43.75 7.8125 43.75 Z M 7.8125 43.75 "/>
<path style=" stroke:none;fill-rule:evenodd;fill:#ffba00;fill-opacity:1;" d="M 32.8125 14.054688 C 32.8125 18.371094 29.308594 21.875 24.992188 21.875 C 20.671875 21.875 17.167969 18.371094 17.167969 14.054688 C 17.167969 9.734375 20.671875 6.230469 24.992188 6.230469 C 29.308594 6.230469 32.8125 9.734375 32.8125 14.054688 Z M 32.8125 14.054688 "/>
</g>
</svg>