<?xml version="1.0" encoding="UTF-8"?>
<svg xmlns="http://www.w3.org/2000/svg" xmlns:xlink="http://www.w3.org/1999/xlink" width="50px" height="50px" viewBox="0 0 42 50" version="1.1">
<g id="surface1">
<path style=" stroke:none;fill-rule:nonzero;fill:rgb(0%,0%,0%);fill-opacity:1;" d="M 22.476562 30 L 18.023438 21.96875 C 17.886719 21.71875 17.75 21.214844 17.746094 20.929688 L 17.476562 7.953125 L 14.628906 3.257812 L 8.953125 3.71875 C 7.316406 3.851562 6.097656 5.285156 6.230469 6.921875 L 9.300781 44.941406 C 9.433594 46.582031 10.867188 47.800781 12.503906 47.667969 L 24.191406 46.722656 L 23.234375 44.691406 C 22.960938 44.890625 22.636719 45.027344 22.273438 45.058594 C 21.242188 45.140625 20.339844 44.375 20.257812 43.34375 C 20.179688 42.414062 20.800781 41.59375 21.679688 41.378906 L 20.929688 39.78125 L 22.746094 31.894531 C 22.875 31.316406 22.765625 30.519531 22.476562 30 Z M 21.300781 31.5625 L 19.617188 38.886719 L 13.695312 39.363281 C 13.246094 39.402344 12.851562 39.066406 12.816406 38.613281 L 10.449219 9.34375 C 10.414062 8.890625 10.75 8.5 11.199219 8.464844 L 16.066406 8.070312 L 16.265625 20.953125 C 16.273438 21.480469 16.472656 22.226562 16.730469 22.6875 L 21.183594 30.71875 C 21.292969 30.917969 21.351562 31.339844 21.300781 31.5625 Z M 21.300781 31.5625 "/>
<path style=" stroke:none;fill-rule:nonzero;fill:rgb(0%,0%,0%);fill-opacity:1;" d="M 33.683594 6.269531 C 33.683594 4.625 32.351562 3.296875 30.710938 3.296875 L 19.71875 3.296875 L 22.160156 8.167969 L 21.480469 21.066406 C 21.453125 21.574219 21.5625 22.320312 21.734375 22.796875 L 24.738281 31.027344 C 24.824219 31.261719 24.835938 31.726562 24.765625 31.964844 L 22.53125 39.207031 L 25.597656 47.390625 L 30.710938 47.390625 C 32.351562 47.390625 33.683594 46.058594 33.683594 44.414062 Z M 29.667969 38.386719 C 29.667969 38.839844 29.300781 39.207031 28.851562 39.207031 L 24.15625 39.207031 L 26.183594 32.386719 C 26.347656 31.839844 26.324219 31.054688 26.128906 30.519531 L 23.128906 22.289062 C 23.023438 22 22.941406 21.460938 22.960938 21.152344 L 23.714844 8.203125 L 28.851562 8.203125 C 29.304688 8.203125 29.667969 8.570312 29.667969 9.019531 Z M 29.667969 38.386719 "/>
<path style=" stroke:none;fill-rule:nonzero;fill:rgb(0%,0%,0%);fill-opacity:1;" d="M 4.316406 8.429688 L 0.71875 5.980469 C 0.523438 5.847656 0.25 5.894531 0.117188 6.09375 C -0.015625 6.292969 0.0351562 6.558594 0.230469 6.695312 L 3.832031 9.144531 C 3.90625 9.195312 3.992188 9.21875 4.074219 9.21875 C 4.210938 9.21875 4.347656 9.152344 4.433594 9.027344 C 4.566406 8.832031 4.515625 8.5625 4.316406 8.429688 Z M 4.316406 8.429688 "/>
<path style=" stroke:none;fill-rule:nonzero;fill:rgb(0%,0%,0%);fill-opacity:1;" d="M 4.296875 6.585938 C 4.382812 6.707031 4.515625 6.769531 4.652344 6.769531 C 4.738281 6.769531 4.824219 6.742188 4.902344 6.6875 C 5.097656 6.550781 5.140625 6.28125 5.003906 6.085938 L 0.828125 0.183594 C 0.6875 -0.0117188 0.417969 -0.0585938 0.226562 0.078125 C 0.03125 0.21875 -0.015625 0.488281 0.121094 0.683594 Z M 4.296875 6.585938 "/>
<path style=" stroke:none;fill-rule:nonzero;fill:rgb(0%,0%,0%);fill-opacity:1;" d="M 34.75 6.324219 C 34.742188 6.5625 34.929688 6.761719 35.167969 6.769531 C 35.171875 6.769531 35.175781 6.769531 35.179688 6.769531 C 35.414062 6.769531 35.605469 6.585938 35.613281 6.351562 C 35.769531 1.652344 31.210938 1.445312 31.164062 1.441406 C 30.921875 1.445312 30.726562 1.621094 30.71875 1.859375 C 30.707031 2.097656 30.894531 2.296875 31.132812 2.304688 C 31.285156 2.308594 34.878906 2.480469 34.75 6.324219 Z M 34.75 6.324219 "/>
<path style=" stroke:none;fill-rule:nonzero;fill:rgb(0%,0%,0%);fill-opacity:1;" d="M 4.652344 25.21875 C 4.773438 25.21875 4.898438 25.167969 4.984375 25.0625 L 6.550781 23.171875 C 6.703125 22.988281 6.679688 22.71875 6.496094 22.566406 C 6.308594 22.414062 6.039062 22.4375 5.886719 22.621094 L 4.320312 24.511719 C 4.167969 24.695312 4.191406 24.96875 4.375 25.121094 C 4.457031 25.1875 4.554688 25.21875 4.652344 25.21875 Z M 4.652344 25.21875 "/>
<path style=" stroke:none;fill-rule:nonzero;fill:rgb(0%,0%,0%);fill-opacity:1;" d="M 11.199219 50 C 11.417969 50 11.644531 49.992188 11.886719 49.972656 C 12.125 49.953125 12.300781 49.746094 12.28125 49.507812 C 12.261719 49.269531 12.058594 49.09375 11.816406 49.109375 C 8.648438 49.359375 7.96875 47.625 7.941406 47.539062 C 7.863281 47.316406 7.621094 47.195312 7.394531 47.269531 C 7.167969 47.347656 7.046875 47.589844 7.121094 47.816406 C 7.152344 47.914062 7.894531 50 11.199219 50 Z M 11.199219 50 "/>
<path style=" stroke:none;fill-rule:nonzero;fill:rgb(0%,0%,0%);fill-opacity:1;" d="M 34.765625 45.691406 C 34.707031 45.921875 34.847656 46.15625 35.078125 46.214844 L 41.414062 47.808594 C 41.449219 47.816406 41.484375 47.820312 41.519531 47.820312 C 41.710938 47.820312 41.886719 47.691406 41.9375 47.496094 C 41.996094 47.261719 41.855469 47.027344 41.621094 46.96875 L 35.289062 45.375 C 35.058594 45.320312 34.824219 45.460938 34.765625 45.691406 Z M 34.765625 45.691406 "/>
<path style=" stroke:none;fill-rule:nonzero;fill:rgb(0%,0%,0%);fill-opacity:1;" d="M 37.488281 50 C 37.644531 50 37.796875 49.910156 37.875 49.761719 C 37.980469 49.546875 37.894531 49.289062 37.679688 49.179688 L 33.875 47.292969 C 33.660156 47.1875 33.402344 47.273438 33.296875 47.488281 C 33.191406 47.703125 33.277344 47.960938 33.492188 48.066406 L 37.296875 49.957031 C 37.355469 49.984375 37.421875 50 37.488281 50 Z M 37.488281 50 "/>
</g>
</svg>
