<?xml version="1.0" encoding="UTF-8"?>
<svg xmlns="http://www.w3.org/2000/svg" xmlns:xlink="http://www.w3.org/1999/xlink" width="50px" height="50px" viewBox="0 0 50 50" version="1.1">
<g id="surface1">
<path style=" stroke:none;fill-rule:nonzero;fill:#ffba00;fill-opacity:1;" d="M 9.28125 4.21875 C 9.875 3.523438 10.742188 3.125 11.65625 3.125 L 38.34375 3.125 C 39.257812 3.125 40.125 3.523438 40.71875 4.21875 L 48.871094 13.730469 C 49.601562 14.582031 50 15.664062 50 16.78125 L 50 17.578125 C 50 20.75 47.984375 23.570312 44.988281 24.597656 C 41.988281 25.628906 38.664062 24.636719 36.71875 22.132812 C 35.3125 23.945312 33.152344 25.003906 30.859375 25 C 28.566406 25.003906 26.40625 23.945312 25 22.132812 C 23.59375 23.945312 21.433594 25.003906 19.140625 25 C 16.847656 25.003906 14.6875 23.945312 13.28125 22.132812 C 11.335938 24.636719 8.011719 25.628906 5.011719 24.597656 C 2.015625 23.570312 0 20.75 0 17.578125 L 0 16.78125 C 0 15.664062 0.398438 14.582031 1.128906 13.730469 Z M 14.84375 17.578125 C 14.84375 19.953125 16.765625 21.875 19.140625 21.875 C 21.515625 21.875 23.4375 19.953125 23.4375 17.578125 C 23.4375 16.714844 24.136719 16.015625 25 16.015625 C 25.863281 16.015625 26.5625 16.714844 26.5625 17.578125 C 26.5625 19.953125 28.484375 21.875 30.859375 21.875 C 33.234375 21.875 35.15625 19.953125 35.15625 17.578125 C 35.15625 16.714844 35.855469 16.015625 36.71875 16.015625 C 37.582031 16.015625 38.28125 16.714844 38.28125 17.578125 C 38.28125 19.953125 40.203125 21.875 42.578125 21.875 C 44.953125 21.875 46.875 19.953125 46.875 17.578125 L 46.875 16.78125 C 46.875 16.410156 46.742188 16.046875 46.5 15.765625 L 38.34375 6.25 L 11.65625 6.25 L 3.5 15.765625 C 3.257812 16.046875 3.125 16.410156 3.125 16.78125 L 3.125 17.578125 C 3.125 19.953125 5.046875 21.875 7.421875 21.875 C 9.796875 21.875 11.71875 19.953125 11.71875 17.578125 C 11.71875 16.714844 12.417969 16.015625 13.28125 16.015625 C 14.144531 16.015625 14.84375 16.714844 14.84375 17.578125 M 4.6875 26.5625 C 5.550781 26.5625 6.25 27.261719 6.25 28.125 L 6.25 46.875 L 43.75 46.875 L 43.75 28.125 C 43.75 27.261719 44.449219 26.5625 45.3125 26.5625 C 46.175781 26.5625 46.875 27.261719 46.875 28.125 L 46.875 46.875 L 48.4375 46.875 C 49.300781 46.875 50 47.574219 50 48.4375 C 50 49.300781 49.300781 50 48.4375 50 L 1.5625 50 C 0.699219 50 0 49.300781 0 48.4375 C 0 47.574219 0.699219 46.875 1.5625 46.875 L 3.125 46.875 L 3.125 28.125 C 3.125 27.261719 3.824219 26.5625 4.6875 26.5625 M 10.9375 28.125 C 11.800781 28.125 12.5 28.824219 12.5 29.6875 L 12.5 40.625 L 37.5 40.625 L 37.5 29.6875 C 37.5 28.824219 38.199219 28.125 39.0625 28.125 C 39.925781 28.125 40.625 28.824219 40.625 29.6875 L 40.625 40.625 C 40.625 42.351562 39.226562 43.75 37.5 43.75 L 12.5 43.75 C 10.773438 43.75 9.375 42.351562 9.375 40.625 L 9.375 29.6875 C 9.375 28.824219 10.074219 28.125 10.9375 28.125 "/>
</g>
</svg>
