<?xml version="1.0" encoding="UTF-8"?>
<svg xmlns="http://www.w3.org/2000/svg" xmlns:xlink="http://www.w3.org/1999/xlink" width="40px" height="40px" viewBox="0 0 40 40" version="1.1">
<g id="surface1">
<path style=" stroke:none;fill-rule:evenodd;fill:rgb(100%,72.941176%,0%);fill-opacity:1;" d="M 12 32 C 9.800781 32 8 33.800781 8 36 C 8 38.199219 9.800781 40 12 40 C 14.199219 40 16 38.199219 16 36 C 16 33.800781 14.199219 32 12 32 Z M 0 0 L 0 4 L 4 4 L 11.199219 19.199219 L 8.398438 24 C 8.199219 24.601562 8 25.398438 8 26 C 8 28.199219 9.800781 30 12 30 L 36 30 L 36 26 L 12.800781 26 C 12.601562 26 12.398438 25.800781 12.398438 25.601562 L 12.398438 25.398438 L 14.199219 22 L 29 22 C 30.601562 22 31.800781 21.199219 32.398438 20 L 39.601562 7 C 40 6.601562 40 6.398438 40 6 C 40 4.800781 39.199219 4 38 4 L 8.398438 4 L 6.601562 0 Z M 32 32 C 29.800781 32 28 33.800781 28 36 C 28 38.199219 29.800781 40 32 40 C 34.199219 40 36 38.199219 36 36 C 36 33.800781 34.199219 32 32 32 Z M 32 32 "/>
<line x1="23" y1="7" x2="23" y2="20" style="stroke:white;stroke-width:3" />
<line x1="16" y1="13" x2="30" y2="13" style="stroke:white;stroke-width:3" />
</g>
</svg>
